<svg width="100" height="100" viewBox="0 0 100 100" fill="none" xmlns="http://www.w3.org/2000/svg">
  <defs>
    <linearGradient id="ballGradSymbol" x1="0%" y1="0%" x2="100%" y2="100%">
      <stop offset="0%" style="stop-color:#4dabf7;stop-opacity:1" />
      <stop offset="100%" style="stop-color:#339af0;stop-opacity:1" />
    </linearGradient>
    <linearGradient id="victoryGrad" x1="0%" y1="0%" x2="100%" y2="100%">
      <stop offset="0%" style="stop-color:#ff922b;stop-opacity:1" />
      <stop offset="100%" style="stop-color:#fcc419;stop-opacity:1" />
    </linearGradient>
  </defs>
  
  <!-- Bingo Ball (Outer Shell) -->
  <circle cx="50" cy="50" r="46" fill="url(#ballGradSymbol)" stroke="white" stroke-width="2"/>
  <circle cx="50" cy="50" r="36" fill="white" opacity="0.2"/>
  
  <!-- Challenge/Victory Symbol (Mountain Peak + Checkmark Hybrid) -->
  <path d="M25 65L45 40L55 55L75 25" stroke="url(#victoryGrad)" stroke-width="10" stroke-linecap="round" stroke-linejoin="round"/>
  <path d="M25 65L45 40L55 55L75 25" stroke="white" stroke-width="2" stroke-linecap="round" stroke-linejoin="round" opacity="0.5"/>
  
  <!-- Bingo Grid Elements (Subtle dots representing the grid) -->
  <circle cx="35" cy="35" r="3" fill="white" opacity="0.4"/>
  <circle cx="65" cy="35" r="3" fill="white" opacity="0.4"/>
  <circle cx="35" cy="65" r="3" fill="white" opacity="0.4"/>
  <circle cx="65" cy="65" r="3" fill="white" opacity="0.4"/>
  
  <!-- Accent Sparkle -->
  <path d="M85 15L87 20L92 22L87 24L85 29L83 24L78 22L83 20L85 15Z" fill="#fcc419"/>
</svg>
